<svg width="321" height="299" viewBox="0 0 321 299" fill="none" xmlns="http://www.w3.org/2000/svg">
<path d="M2.82718 149.507C2.82718 230.524 73.4648 296.443 160.91 296.443C248.355 296.443 318.993 230.524 318.993 149.507C318.993 68.4909 248.355 2.57227 160.91 2.57227C73.4648 2.57227 2.82718 68.4909 2.82718 149.507Z" fill="#FFE352"/>
<path d="M2.82718 149.507C2.82718 230.524 73.4648 296.443 160.91 296.443C248.355 296.443 318.993 230.524 318.993 149.507C318.993 68.4909 248.355 2.57227 160.91 2.57227C73.4648 2.57227 2.82718 68.4909 2.82718 149.507Z" fill="url(#paint0_radial)"/>
<path d="M2.82718 149.507C2.82718 230.524 73.4648 296.443 160.91 296.443C248.355 296.443 318.993 230.524 318.993 149.507C318.993 68.4909 248.355 2.57227 160.91 2.57227C73.4648 2.57227 2.82718 68.4909 2.82718 149.507Z" stroke="black" stroke-width="4"/>
<path d="M132.692 127.547C155.951 122.289 183.052 123.705 198.423 130.379" stroke="black" stroke-width="5" stroke-linecap="round"/>
<path d="M239.884 83.3742C239.884 99.0776 229.289 111.808 216.221 111.808C203.152 111.808 192.558 99.0776 192.558 83.3742C192.558 67.6708 203.152 65.6953 216.221 65.6953C229.289 65.6953 239.884 67.6708 239.884 83.3742Z" fill="white"/>
<path d="M126.625 88.634C126.625 104.337 116.031 117.068 102.962 117.068C89.8936 117.068 79.2993 104.337 79.2993 88.634C79.2993 72.9306 89.8936 70.9551 102.962 70.9551C116.031 70.9551 126.625 72.9306 126.625 88.634Z" fill="white"/>
<ellipse cx="109.636" cy="93.808" rx="10.1124" ry="12.7416" fill="black"/>
<ellipse cx="210.153" cy="88.7524" rx="9.91014" ry="12.9439" fill="black"/>
<path d="M140.92 79.9964C140.92 89.6961 129.449 97.5593 115.299 97.5593C101.149 97.5593 73.2314 89.6961 73.2314 79.9964C73.2314 70.2966 101.149 62.4334 115.299 62.4334C129.449 62.4334 140.92 70.2966 140.92 79.9964Z" fill="#FFE352"/>
<path d="M248.985 79.7997C248.985 89.4995 222.887 92.327 208.737 92.327C194.587 92.327 183.117 84.4638 183.117 74.7641C183.117 65.0644 194.587 57.2012 208.737 57.2012C222.887 57.2012 248.985 70.1 248.985 79.7997Z" fill="#FFE352"/>
<path d="M255.206 55.0207C255.206 55.0207 258.251 57.303 267.579 68.5208C276.908 79.7385 278.993 91.2883 278.993 91.2883" stroke="#505050" stroke-opacity="0.15" stroke-width="4" stroke-linecap="round" stroke-linejoin="bevel"/>
<defs>
<radialGradient id="paint0_radial" cx="0" cy="0" r="1" gradientUnits="userSpaceOnUse" gradientTransform="translate(215.232 87.205) rotate(148.199) scale(252.276 204.779)">
<stop stop-color="#FCFCFC" stop-opacity="0"/>
<stop offset="0.223958" stop-color="white" stop-opacity="0"/>
<stop offset="0.785743" stop-color="#F7F7F7" stop-opacity="0"/>
<stop offset="1" stop-opacity="0.21"/>
</radialGradient>
</defs>
</svg>
