<svg width="337" height="313" viewBox="0 0 337 313" fill="none" xmlns="http://www.w3.org/2000/svg">
<path d="M2.56522 156.276C2.56522 241.269 76.8197 310.417 168.735 310.417C260.651 310.417 334.905 241.269 334.905 156.276C334.905 71.2833 260.651 2.13477 168.735 2.13477C76.8197 2.13477 2.56522 71.2833 2.56522 156.276Z" fill="#FFE352"/>
<path d="M2.56522 156.276C2.56522 241.269 76.8197 310.417 168.735 310.417C260.651 310.417 334.905 241.269 334.905 156.276C334.905 71.2833 260.651 2.13477 168.735 2.13477C76.8197 2.13477 2.56522 71.2833 2.56522 156.276Z" fill="url(#paint0_radial)"/>
<path d="M2.56522 156.276C2.56522 241.269 76.8197 310.417 168.735 310.417C260.651 310.417 334.905 241.269 334.905 156.276C334.905 71.2833 260.651 2.13477 168.735 2.13477C76.8197 2.13477 2.56522 71.2833 2.56522 156.276Z" stroke="black" stroke-width="4"/>
<path d="M170.704 99.0216L169.014 98.2419L167.872 99.9087C169.014 98.2419 169.013 98.2418 169.013 98.2417L169.013 98.2414L169.01 98.24L168.998 98.2347L168.953 98.2141L168.778 98.1333C168.623 98.0623 168.395 97.9578 168.101 97.8228C167.511 97.5529 166.654 97.1615 165.582 96.675C163.438 95.7021 160.434 94.3483 156.994 92.8247C150.122 89.7809 141.48 86.0466 134.472 83.3181C127.463 80.5896 118.461 77.4552 111.229 75.0086C107.61 73.784 104.427 72.7292 102.148 71.9805C101.009 71.6061 100.095 71.3082 99.4662 71.1037C99.1518 71.0015 98.9084 70.9227 98.7435 70.8693L98.5558 70.8086L98.5078 70.7931L98.4955 70.7892L98.4923 70.7882L98.4915 70.7879C98.4913 70.7878 98.4912 70.7878 97.5767 72.5431L98.4912 70.7878L96.682 70.205L95.7129 71.8176C83.6341 91.9174 76.6158 111.741 75.1028 127.587C74.3465 135.508 74.9572 142.523 77.0803 148.102C79.2082 153.693 82.8998 157.938 88.3536 160.061C93.8074 162.184 100.233 161.878 107 159.75C113.752 157.626 120.965 153.656 128.21 148.261C142.705 137.469 157.657 120.734 169.735 100.634L170.704 99.0216Z" fill="#B94C4C" stroke="black" stroke-width="4"/>
<mask id="mask0" mask-type="alpha" maskUnits="userSpaceOnUse" x="76" y="72" width="92" height="88">
<path d="M163.343 99.9777C163.994 100.282 164.564 100.55 165.041 100.775C153.363 119.788 139.188 135.455 125.652 145.534C118.694 150.714 111.986 154.358 105.941 156.259C99.9121 158.155 94.6664 158.286 90.4145 156.631C86.1626 154.976 83.0334 151.585 81.1376 146.603C79.237 141.609 78.6212 135.114 79.3475 127.507C80.7605 112.71 87.2206 94.0395 98.4903 74.867C99.0051 75.0284 99.6198 75.2219 100.321 75.4436C102.592 76.1619 105.766 77.1767 109.379 78.3622C116.615 80.7363 125.574 83.7837 132.558 86.5025C139.541 89.2213 148.072 92.9824 154.876 96.0739C158.274 97.6177 161.233 98.9907 163.343 99.9777Z" fill="#B94C4C" stroke="black" stroke-width="4"/>
</mask>
<g mask="url(#mask0)">
<path d="M174.579 94.082C161.39 116.029 147.982 104.672 126.289 96.2273C104.595 87.7823 82.832 85.4464 96.0207 63.4997C109.209 41.553 137.487 30.6078 159.18 39.0529C180.873 47.498 187.767 72.1354 174.579 94.082Z" fill="white"/>
<path d="M84.9524 122.311C65.0355 116.406 45.0861 134.604 37.1493 144.925C38.1832 157.174 41.8573 173.066 51.3267 183.459C72.0881 206.245 101.37 191.064 104.468 189.998C105.959 170.922 104.869 128.216 84.9524 122.311Z" fill="#E48888" stroke="black" stroke-width="4"/>
</g>
<line x1="128.391" y1="54.8085" x2="167.774" y2="48.1986" stroke="black" stroke-width="6" stroke-linecap="round"/>
<line x1="198.748" y1="48.0287" x2="237.575" y2="57.3654" stroke="black" stroke-width="6" stroke-linecap="round"/>
<defs>
<radialGradient id="paint0_radial" cx="0" cy="0" r="1" gradientUnits="userSpaceOnUse" gradientTransform="translate(276.553 42.3157) rotate(140.741) scale(332.996 358.641)">
<stop stop-color="#FCFCFC" stop-opacity="0"/>
<stop offset="0.223958" stop-color="white" stop-opacity="0"/>
<stop offset="0.785743" stop-color="#959595" stop-opacity="0"/>
<stop offset="1" stop-opacity="0.21"/>
</radialGradient>
</defs>
</svg>
