<svg width="321" height="299" viewBox="0 0 321 299" fill="none" xmlns="http://www.w3.org/2000/svg">
<path d="M2.33109 149.275C2.33109 230.291 72.9687 296.21 160.414 296.21C247.859 296.21 318.497 230.291 318.497 149.275C318.497 68.2584 247.859 2.33984 160.414 2.33984C72.9687 2.33984 2.33109 68.2584 2.33109 149.275Z" fill="#FFE352"/>
<path d="M2.33109 149.275C2.33109 230.291 72.9687 296.21 160.414 296.21C247.859 296.21 318.497 230.291 318.497 149.275C318.497 68.2584 247.859 2.33984 160.414 2.33984C72.9687 2.33984 2.33109 68.2584 2.33109 149.275Z" fill="url(#paint0_radial)"/>
<path d="M2.33109 149.275C2.33109 230.291 72.9687 296.21 160.414 296.21C247.859 296.21 318.497 230.291 318.497 149.275C318.497 68.2584 247.859 2.33984 160.414 2.33984C72.9687 2.33984 2.33109 68.2584 2.33109 149.275Z" stroke="black" stroke-width="4"/>
<path d="M272.49 133.67L168.207 134.122L59.2245 133.281" stroke="black" stroke-width="6"/>
<path d="M104.422 91.556C104.422 95.5609 123.341 98.8074 146.089 98.8074C168.838 98.8074 187.279 95.5609 187.279 91.556C187.279 87.5512 168.838 84.3047 146.089 84.3047C123.341 84.3047 104.422 87.5512 104.422 91.556Z" fill="white"/>
<mask id="mask0" mask-type="alpha" maskUnits="userSpaceOnUse" x="104" y="84" width="84" height="15">
<path d="M104.422 91.556C104.422 95.5609 123.341 98.8074 146.089 98.8074C168.838 98.8074 187.279 95.5609 187.279 91.556C187.279 87.5512 168.838 84.3047 146.089 84.3047C123.341 84.3047 104.422 87.5512 104.422 91.556Z" fill="white"/>
</mask>
<g mask="url(#mask0)">
<path d="M130.871 92.2442C130.871 97.6743 134.022 102.076 137.812 102.076C141.601 102.076 144.673 97.6743 144.673 92.2442C144.673 86.8141 141.601 82.4121 137.812 82.4121C134.022 82.4121 130.871 86.8141 130.871 92.2442Z" fill="black"/>
</g>
<path d="M209.99 91.9823C209.99 95.8493 233.514 98.9841 253.672 98.9841C273.829 98.9841 290.17 95.8493 290.17 91.9823C290.17 88.1153 273.829 84.9805 253.672 84.9805C233.514 84.9805 209.99 88.1153 209.99 91.9823Z" fill="white"/>
<mask id="mask1" mask-type="alpha" maskUnits="userSpaceOnUse" x="210" y="84" width="81" height="15">
<path d="M210.008 91.9881C210.008 95.8551 233.514 98.8066 253.672 98.8066C273.829 98.8066 290.17 95.6718 290.17 91.8048C290.17 87.9378 273.847 84.9863 253.689 84.9863C233.532 84.9863 210.008 88.1211 210.008 91.9881Z" fill="white"/>
</mask>
<g mask="url(#mask1)">
<path d="M237.548 90.6946C237.548 95.0822 238.66 102.183 243.074 102.183C248.476 102.183 250.242 96.3366 250.242 91.949C250.242 87.5613 246.126 82.75 243.074 82.75C240.022 82.75 237.548 86.3069 237.548 90.6946Z" fill="black"/>
</g>
<defs>
<radialGradient id="paint0_radial" cx="0" cy="0" r="1" gradientUnits="userSpaceOnUse" gradientTransform="translate(214.736 86.9726) rotate(148.199) scale(252.276 204.779)">
<stop stop-color="#FCFCFC" stop-opacity="0"/>
<stop offset="0.223958" stop-color="white" stop-opacity="0"/>
<stop offset="0.785743" stop-color="#F7F7F7" stop-opacity="0"/>
<stop offset="1" stop-opacity="0.21"/>
</radialGradient>
</defs>
</svg>
