<svg width="321" height="299" viewBox="0 0 321 299" fill="none" xmlns="http://www.w3.org/2000/svg">
<path d="M2.33109 149.507C2.33109 230.524 72.9687 296.443 160.414 296.443C247.859 296.443 318.497 230.524 318.497 149.507C318.497 68.4909 247.859 2.57227 160.414 2.57227C72.9687 2.57227 2.33109 68.4909 2.33109 149.507Z" fill="#FFE352"/>
<path d="M2.33109 149.507C2.33109 230.524 72.9687 296.443 160.414 296.443C247.859 296.443 318.497 230.524 318.497 149.507C318.497 68.4909 247.859 2.57227 160.414 2.57227C72.9687 2.57227 2.33109 68.4909 2.33109 149.507Z" fill="url(#paint0_radial)"/>
<path d="M2.33109 149.507C2.33109 230.524 72.9687 296.443 160.414 296.443C247.859 296.443 318.497 230.524 318.497 149.507C318.497 68.4909 247.859 2.57227 160.414 2.57227C72.9687 2.57227 2.33109 68.4909 2.33109 149.507Z" stroke="black" stroke-width="4"/>
<path d="M227.142 118.867V118.867C218.659 117.365 209.984 117.297 201.479 118.665L200.521 118.819" stroke="black" stroke-width="5" stroke-linecap="round"/>
<path d="M105.668 91.1847C105.668 97.4816 124.587 102.586 147.336 102.586C170.084 102.586 188.525 97.4816 188.525 91.1847C188.525 84.8878 170.084 79.7832 147.336 79.7832C124.587 79.7832 105.668 84.8878 105.668 91.1847Z" fill="white"/>
<path fill-rule="evenodd" clip-rule="evenodd" d="M172.681 100.173C178.296 98.9577 182.742 97.3487 185.479 95.4958C185.088 90.8323 182.271 87.2148 178.855 87.2148C175.171 87.2148 172.185 91.4205 172.185 96.6084C172.185 97.87 172.361 99.0735 172.681 100.173Z" fill="black"/>
<path d="M211.236 91.8529C211.236 97.9331 234.76 102.862 254.917 102.862C275.075 102.862 291.416 97.9331 291.416 91.8529C291.416 85.7727 275.075 80.8438 254.917 80.8438C234.76 80.8438 211.236 85.7727 211.236 91.8529Z" fill="white"/>
<mask id="mask0" mask-type="alpha" maskUnits="userSpaceOnUse" x="211" y="80" width="81" height="23">
<path d="M211.236 91.5756C211.236 97.6557 234.76 102.585 254.917 102.585C275.075 102.585 291.416 97.6557 291.416 91.5756C291.416 85.4954 275.075 80.5664 254.917 80.5664C234.76 80.5664 211.236 85.4954 211.236 91.5756Z" fill="white"/>
</mask>
<g mask="url(#mask0)">
<path d="M276.812 95.8476C276.812 100.934 277.925 109.165 282.343 109.165C287.751 109.165 289.518 102.388 289.518 97.3016C289.518 92.2157 285.398 86.6387 282.343 86.6387C279.288 86.6387 276.812 90.7616 276.812 95.8476Z" fill="black"/>
</g>
<defs>
<radialGradient id="paint0_radial" cx="0" cy="0" r="1" gradientUnits="userSpaceOnUse" gradientTransform="translate(214.736 87.205) rotate(148.199) scale(252.276 204.779)">
<stop stop-color="#FCFCFC" stop-opacity="0"/>
<stop offset="0.223958" stop-color="white" stop-opacity="0"/>
<stop offset="0.785743" stop-color="#F7F7F7" stop-opacity="0"/>
<stop offset="1" stop-opacity="0.21"/>
</radialGradient>
</defs>
</svg>
