<svg width="325" height="303" viewBox="0 0 325 303" fill="none" xmlns="http://www.w3.org/2000/svg">
<ellipse cx="162.083" cy="151.275" rx="160.083" ry="148.935" fill="#FFE352"/>
<ellipse cx="162.083" cy="151.275" rx="160.083" ry="148.935" fill="url(#paint0_radial)"/>
<ellipse cx="162.083" cy="151.275" rx="160.083" ry="148.935" stroke="black" stroke-width="4"/>
<path d="M125.409 128.599C128.654 131.628 154.371 133.549 169.428 131.628C175.58 128.207 150.53 162.608 150.53 162.608C146.202 159.637 121.58 125.024 125.409 128.599Z" fill="#B94C4C" stroke="black" stroke-width="3"/>
<ellipse cx="112.646" cy="98.9999" rx="22.6184" ry="18.4178" fill="white"/>
<path d="M107.06 100.637C107.06 105.723 104.001 109.846 100.228 109.846C96.4551 109.846 93.3965 105.723 93.3965 100.637C93.3965 95.5507 96.4551 91.4277 100.228 91.4277C104.001 91.4277 107.06 95.5507 107.06 100.637Z" fill="black"/>
<path d="M95.1276 69.1801C104.06 69.1801 138.633 64.541 141.475 64.541C144.316 64.541 145.33 69.7678 141.475 71.9959C137.619 74.2239 117.126 74.1534 104.06 76.3815C90.9932 78.6095 73.556 89.7707 69.5853 87.2852C65.6145 84.7997 86.1957 69.1801 95.1276 69.1801Z" fill="#353434"/>
<ellipse cx="196.079" cy="109.846" rx="22.6876" ry="20.0334" fill="white"/>
<path d="M211.335 109.822C211.335 114.908 207.915 119.031 203.696 119.031C199.476 119.031 196.056 114.908 196.056 109.822C196.056 104.736 199.476 100.613 203.696 100.613C207.915 100.613 211.335 104.736 211.335 109.822Z" fill="black"/>
<path d="M252.734 104.453C248.474 99.4695 197.88 70.0434 194.533 66.4787C191.186 62.914 179.603 65.5701 182.542 70.0434C185.481 74.5167 209.416 81.4215 222.26 91.161C235.104 100.901 250.905 123.883 256.52 123.622C262.136 123.36 256.994 109.436 252.734 104.453Z" fill="#353434"/>
<path d="M157.766 217.353C160.813 225.523 154.737 230.993 150.612 230.993C146.486 230.993 145.393 225.719 146.526 211.56C147.66 197.401 149.942 192.15 152.62 156.422C152.62 207.821 154.72 209.183 157.766 217.353Z" fill="#4BCFE0" fill-opacity="0.48"/>
<path d="M157.766 217.353C160.813 225.523 154.737 230.993 150.612 230.993C146.486 230.993 145.393 225.719 146.526 211.56C147.66 197.401 149.942 192.15 152.62 156.422C152.62 207.821 154.72 209.183 157.766 217.353Z" fill="url(#paint1_radial)"/>
<defs>
<radialGradient id="paint0_radial" cx="0" cy="0" r="1" gradientUnits="userSpaceOnUse" gradientTransform="translate(107.76 88.9726) rotate(31.8008) scale(252.276 204.779)">
<stop stop-color="#FCFCFC" stop-opacity="0"/>
<stop offset="0.223958" stop-color="white" stop-opacity="0"/>
<stop offset="0.785743" stop-color="#F7F7F7" stop-opacity="0"/>
<stop offset="1" stop-opacity="0.21"/>
</radialGradient>
<radialGradient id="paint1_radial" cx="0" cy="0" r="1" gradientUnits="userSpaceOnUse" gradientTransform="translate(147.217 206.569) rotate(-85.6685) scale(32.0925 8.54365)">
<stop offset="0.139972" stop-color="white" stop-opacity="0.55"/>
<stop offset="1" stop-color="white" stop-opacity="0"/>
</radialGradient>
</defs>
</svg>
