<svg width="350" height="308" viewBox="0 0 350 308" fill="none" xmlns="http://www.w3.org/2000/svg">
<ellipse rx="160.083" ry="148.935" transform="matrix(-1 0 0 1 162.248 156.275)" fill="#FFE352"/>
<ellipse rx="160.083" ry="148.935" transform="matrix(-1 0 0 1 162.248 156.275)" fill="url(#paint0_radial)"/>
<ellipse rx="160.083" ry="148.935" transform="matrix(-1 0 0 1 162.248 156.275)" stroke="black" stroke-width="4"/>
<path d="M132.568 80.2834C132.568 84.637 148.883 88.1663 168.502 88.1663C188.12 88.1663 204.023 84.637 204.023 80.2834C204.023 75.9297 188.12 72.4004 168.502 72.4004C148.883 72.4004 132.568 75.9297 132.568 80.2834Z" fill="white"/>
<path fill-rule="evenodd" clip-rule="evenodd" d="M186.34 87.0998C193.005 86.2392 198.292 84.9113 201.292 83.3182C200.688 80.2224 197.428 77.8574 193.498 77.8574C189.139 77.8574 185.605 80.7673 185.605 84.3567C185.605 85.3369 185.869 86.2664 186.34 87.0998Z" fill="black"/>
<path d="M227.242 76.2462C227.242 80.5999 243.557 84.1292 263.175 84.1292C282.794 84.1292 298.697 80.5999 298.697 76.2462C298.697 71.8926 282.794 68.3633 263.175 68.3633C243.557 68.3633 227.242 71.8926 227.242 76.2462Z" fill="white"/>
<path fill-rule="evenodd" clip-rule="evenodd" d="M281.015 83.0652C287.68 82.2047 292.967 80.8768 295.966 79.2838C295.363 76.1876 292.103 73.8223 288.173 73.8223C283.814 73.8223 280.28 76.7321 280.28 80.3216C280.28 81.302 280.543 82.2317 281.015 83.0652Z" fill="black"/>
<g filter="url(#filter0_d)">
<path d="M157.039 32.7658C157.039 32.7658 145.004 29.8629 121.491 36.5407C97.9788 43.2186 87.2193 74.4299 87.2193 74.4299" stroke="#353434" stroke-width="9" stroke-linecap="round"/>
</g>
<g filter="url(#filter1_d)">
<path d="M298.698 55.2069C298.698 55.2069 267.355 35.5462 250.04 41.0202C232.725 46.4942 227.989 51.4724 227.989 51.4724" stroke="#353434" stroke-width="9" stroke-linecap="round"/>
</g>
<line y1="-2" x2="101.09" y2="-2" transform="matrix(-1 0 0 1 273.863 115.125)" stroke="black" stroke-width="4"/>
<defs>
<filter id="filter0_d" x="58.2422" y="0.787109" width="154.777" height="121.413" filterUnits="userSpaceOnUse" color-interpolation-filters="sRGB">
<feFlood flood-opacity="0" result="BackgroundImageFix"/>
<feColorMatrix in="SourceAlpha" type="matrix" values="0 0 0 0 0 0 0 0 0 0 0 0 0 0 0 0 0 0 127 0" result="hardAlpha"/>
<feOffset dx="15" dy="12"/>
<feGaussianBlur stdDeviation="15"/>
<feColorMatrix type="matrix" values="0 0 0 0 0 0 0 0 0 0 0 0 0 0 0 0 0 0 0.2 0"/>
<feBlend mode="normal" in2="BackgroundImageFix" result="effect1_dropShadow"/>
<feBlend mode="normal" in="SourceGraphic" in2="effect1_dropShadow" result="shape"/>
</filter>
<filter id="filter1_d" x="206.419" y="2.5957" width="143.088" height="123.495" filterUnits="userSpaceOnUse" color-interpolation-filters="sRGB">
<feFlood flood-opacity="0" result="BackgroundImageFix"/>
<feColorMatrix in="SourceAlpha" type="matrix" values="0 0 0 0 0 0 0 0 0 0 0 0 0 0 0 0 0 0 127 0" result="hardAlpha"/>
<feOffset dx="15" dy="12"/>
<feGaussianBlur stdDeviation="15"/>
<feColorMatrix type="matrix" values="0 0 0 0 0 0 0 0 0 0 0 0 0 0 0 0 0 0 0.2 0"/>
<feBlend mode="normal" in2="BackgroundImageFix" result="effect1_dropShadow"/>
<feBlend mode="normal" in="SourceGraphic" in2="effect1_dropShadow" result="shape"/>
</filter>
<radialGradient id="paint0_radial" cx="0" cy="0" r="1" gradientUnits="userSpaceOnUse" gradientTransform="translate(105.76 86.6328) rotate(31.8008) scale(252.276 204.779)">
<stop stop-color="#FCFCFC" stop-opacity="0"/>
<stop offset="0.223958" stop-color="white" stop-opacity="0"/>
<stop offset="0.785743" stop-color="#F7F7F7" stop-opacity="0"/>
<stop offset="1" stop-opacity="0.21"/>
</radialGradient>
</defs>
</svg>
