<svg width="322" height="323" viewBox="0 0 322 323" fill="none" xmlns="http://www.w3.org/2000/svg">
<ellipse cx="161.071" cy="20.5157" rx="22.2472" ry="8.08991" stroke="#FDFF99" stroke-width="19"/>
<path d="M2.89163 173.9C2.89163 254.916 73.5293 320.835 160.974 320.835C248.419 320.835 319.057 254.916 319.057 173.9C319.057 92.8834 248.419 26.9648 160.974 26.9648C73.5293 26.9648 2.89163 92.8834 2.89163 173.9Z" fill="#FFE352"/>
<path d="M2.89163 173.9C2.89163 254.916 73.5293 320.835 160.974 320.835C248.419 320.835 319.057 254.916 319.057 173.9C319.057 92.8834 248.419 26.9648 160.974 26.9648C73.5293 26.9648 2.89163 92.8834 2.89163 173.9Z" fill="url(#paint0_radial)"/>
<path d="M2.89163 173.9C2.89163 254.916 73.5293 320.835 160.974 320.835C248.419 320.835 319.057 254.916 319.057 173.9C319.057 92.8834 248.419 26.9648 160.974 26.9648C73.5293 26.9648 2.89163 92.8834 2.89163 173.9Z" fill="url(#paint1_radial)" fill-opacity="0.2"/>
<path d="M2.89163 173.9C2.89163 254.916 73.5293 320.835 160.974 320.835C248.419 320.835 319.057 254.916 319.057 173.9C319.057 92.8834 248.419 26.9648 160.974 26.9648C73.5293 26.9648 2.89163 92.8834 2.89163 173.9Z" stroke="black" stroke-width="4"/>
<g filter="url(#filter0_f)">
<path d="M184.533 26.968C184.533 28.8566 171.18 32.245 160.611 32.245C150.042 32.245 140.038 28.8566 140.038 26.968C140.038 25.0794 150.042 30.7358 160.611 30.7358C171.18 30.7358 184.533 25.0794 184.533 26.968Z" stroke="black" stroke-opacity="0.1" stroke-width="12"/>
</g>
<ellipse cx="132.53" cy="94.2671" rx="29.3966" ry="20.9976" fill="white"/>
<mask id="mask0" mask-type="alpha" maskUnits="userSpaceOnUse" x="103" y="73" width="59" height="43">
<ellipse cx="132.53" cy="94.2671" rx="29.3966" ry="20.9976" fill="white"/>
</mask>
<g mask="url(#mask0)">
<ellipse cx="120.622" cy="92.9208" rx="14.5618" ry="9.70789" fill="black"/>
</g>
<path d="M165.926 106.243C165.926 114.495 149.989 124.067 130.33 124.067C110.671 124.067 94.7344 114.495 94.7344 106.243C94.7344 97.9918 110.671 91.3027 130.33 91.3027C149.989 91.3027 165.926 97.9918 165.926 106.243Z" fill="#FFE352"/>
<path d="M242.173 101.618C236.982 99.7305 223.93 96.0765 213.251 96.5619C199.903 97.1687 200.712 95.1461 182.712 97.7753" stroke="black"/>
<ellipse cx="211.271" cy="95.3168" rx="29.3966" ry="19.9477" fill="white"/>
<mask id="mask1" mask-type="alpha" maskUnits="userSpaceOnUse" x="181" y="75" width="60" height="41">
<ellipse cx="211.271" cy="95.3168" rx="29.3966" ry="19.9477" fill="white"/>
</mask>
<g mask="url(#mask1)">
<path d="M211.842 96.6521C211.842 101.902 205.232 106.158 197.078 106.158C188.924 106.158 182.314 101.902 182.314 96.6521C182.314 91.4023 188.924 87.1465 197.078 87.1465C205.232 87.1465 211.842 91.4023 211.842 96.6521Z" fill="black"/>
</g>
<ellipse cx="206.546" cy="105.587" rx="40.6828" ry="9.67675" fill="#FFE352"/>
<path d="M202.581 140.65V139.15H201.081H123.049H121.549V140.65C121.549 147.861 126.402 154.135 133.703 158.525C141.034 162.933 151.065 165.611 162.065 165.611C173.065 165.611 183.096 162.933 190.427 158.525C197.728 154.135 202.581 147.861 202.581 140.65Z" fill="#B94C4C" stroke="black" stroke-width="3"/>
<mask id="mask2" mask-type="alpha" maskUnits="userSpaceOnUse" x="123" y="140" width="79" height="25">
<path d="M200.044 141.65C199.621 147.261 195.653 152.465 189.138 156.383C182.258 160.52 172.689 163.111 162.065 163.111C151.441 163.111 141.872 160.52 134.992 156.383C128.477 152.465 124.509 147.261 124.086 141.65H200.044Z" fill="#B94C4C" stroke="black" stroke-width="2"/>
</mask>
<g mask="url(#mask2)">
<path d="M135.7 157.036C114.59 157.523 106.481 164.368 104.921 167.904C112.473 171.027 124.37 174.839 138.507 176.607C169.503 180.483 187.638 173.476 189.849 172.877C180.878 167.695 156.81 156.549 135.7 157.036Z" fill="#E48888" stroke="black" stroke-width="2"/>
</g>
<path d="M97.9697 79.0005C113.886 70.9753 134.276 51.8958 148.614 54.7903M243.588 83.2133C227.671 75.188 207.282 56.1086 192.944 59.0031" stroke="black" stroke-width="8"/>
<path d="M240.15 100.403C225.791 96.9653 220.937 96.1563 213.049 96.3585C205.161 96.5608 195.656 95.145 182.712 97.7742" stroke="black" stroke-opacity="0.15" stroke-width="2" stroke-linecap="round"/>
<path d="M103.344 95.4869C102.863 95.7582 102.693 96.3681 102.964 96.8492C103.236 97.3302 103.846 97.5002 104.327 97.2288L103.344 95.4869ZM104.327 97.2288C108.357 94.9553 110.252 93.5839 113.675 92.8562C117.137 92.1202 122.162 92.0559 132.289 92.704L132.416 90.7081C122.318 90.0618 117.028 90.0987 113.26 90.8999C109.452 91.7093 107.201 93.311 103.344 95.4869L104.327 97.2288ZM132.289 92.704C142.345 93.3476 149.151 94.7194 153.558 96.1509C155.761 96.8668 157.348 97.5921 158.434 98.2372C159.55 98.8994 160.05 99.4247 160.209 99.6949L161.934 98.6835C161.52 97.9762 160.671 97.2391 159.455 96.5173C158.21 95.7781 156.48 94.9975 154.175 94.2488C149.565 92.7511 142.585 91.3588 132.416 90.7081L132.289 92.704Z" fill="black" fill-opacity="0.15"/>
<defs>
<filter id="filter0_f" x="114.038" y="0.582031" width="96.4945" height="57.6624" filterUnits="userSpaceOnUse" color-interpolation-filters="sRGB">
<feFlood flood-opacity="0" result="BackgroundImageFix"/>
<feBlend mode="normal" in="SourceGraphic" in2="BackgroundImageFix" result="shape"/>
<feGaussianBlur stdDeviation="10" result="effect1_foregroundBlur"/>
</filter>
<radialGradient id="paint0_radial" cx="0" cy="0" r="1" gradientUnits="userSpaceOnUse" gradientTransform="translate(166.532 60.9649) rotate(93.6146) scale(283.625 304.855)">
<stop stop-color="#FCFCFC" stop-opacity="0"/>
<stop offset="0.223958" stop-color="white" stop-opacity="0"/>
<stop offset="0.599363" stop-color="#959595" stop-opacity="0"/>
<stop offset="1" stop-opacity="0.21"/>
</radialGradient>
<radialGradient id="paint1_radial" cx="0" cy="0" r="1" gradientUnits="userSpaceOnUse" gradientTransform="translate(266.779 143.567) rotate(177.925) scale(247.157 265.656)">
<stop stop-color="#FCFCFC" stop-opacity="0"/>
<stop offset="0.223958" stop-color="white" stop-opacity="0"/>
<stop offset="0.785743" stop-color="#959595" stop-opacity="0"/>
<stop offset="1" stop-opacity="0.21"/>
</radialGradient>
</defs>
</svg>
