<svg width="329" height="316" viewBox="0 0 329 316" fill="none" xmlns="http://www.w3.org/2000/svg">
<path d="M2.07034 148.935C2.07034 229.952 72.708 295.87 160.153 295.87C247.598 295.87 318.236 229.952 318.236 148.935C318.236 67.9186 247.598 2 160.153 2C72.708 2 2.07034 67.9186 2.07034 148.935Z" fill="#FFE352"/>
<path d="M2.07034 148.935C2.07034 229.952 72.708 295.87 160.153 295.87C247.598 295.87 318.236 229.952 318.236 148.935C318.236 67.9186 247.598 2 160.153 2C72.708 2 2.07034 67.9186 2.07034 148.935Z" fill="url(#paint0_radial)" fill-opacity="0.2"/>
<path d="M2.07034 148.935C2.07034 229.952 72.708 295.87 160.153 295.87C247.598 295.87 318.236 229.952 318.236 148.935C318.236 67.9186 247.598 2 160.153 2C72.708 2 2.07034 67.9186 2.07034 148.935Z" fill="url(#paint1_radial)"/>
<path d="M2.07034 148.935C2.07034 229.952 72.708 295.87 160.153 295.87C247.598 295.87 318.236 229.952 318.236 148.935C318.236 67.9186 247.598 2 160.153 2C72.708 2 2.07034 67.9186 2.07034 148.935Z" stroke="black" stroke-width="4"/>
<path d="M267.234 122.121L264.865 122.566L265.234 124.531C264.865 122.566 264.865 122.566 264.865 122.566L264.863 122.566L264.855 122.568L264.821 122.574L264.686 122.599C264.566 122.621 264.387 122.654 264.151 122.698C263.679 122.785 262.98 122.912 262.075 123.074C260.266 123.398 257.633 123.862 254.343 124.419C247.761 125.533 238.553 127.017 228.047 128.502C207.01 131.475 180.868 134.434 160.204 134.434C139.54 134.434 113.398 131.475 92.3608 128.502C81.8552 127.017 72.6468 125.533 66.0654 124.419C62.7751 123.862 60.142 123.398 58.3327 123.074C57.428 122.912 56.7294 122.785 56.2574 122.698C56.0215 122.654 55.8422 122.621 55.7222 122.599L55.5871 122.574L55.5535 122.568L55.5452 122.566L55.5433 122.566C55.5429 122.566 55.5428 122.566 55.1738 124.531L55.5428 122.566L53.1738 122.121V124.531C53.1738 163.315 65.0481 198.502 84.3407 224.038C103.634 249.575 130.436 265.55 160.204 265.55C189.972 265.55 216.774 249.575 236.067 224.038C255.36 198.502 267.234 163.315 267.234 124.531V122.121Z" fill="#B94C4C" stroke="black" stroke-width="4"/>
<mask id="mask0" mask-type="alpha" maskUnits="userSpaceOnUse" x="55" y="124" width="211" height="140">
<path d="M87.5317 221.625C69.2 197.361 57.6602 163.947 57.1884 126.894C57.332 126.917 57.4819 126.942 57.6378 126.968C59.4473 127.264 62.0774 127.687 65.3643 128.195C71.9377 129.211 81.1405 130.565 91.6608 131.919C112.679 134.624 139.04 137.341 160.204 137.341C181.367 137.341 207.728 134.624 228.746 131.919C239.267 130.565 248.469 129.211 255.043 128.195C258.33 127.687 260.96 127.264 262.769 126.968C262.925 126.942 263.075 126.917 263.219 126.894C262.747 163.947 251.207 197.361 232.875 221.625C214.155 246.403 188.442 261.548 160.204 261.548C131.965 261.548 106.252 246.403 87.5317 221.625Z" fill="#B94C4C" stroke="black" stroke-width="4"/>
</mask>
<g mask="url(#mask0)">
<path d="M272.998 106.214C272.998 145.68 225.202 150.029 160.377 150.029C95.5513 150.029 38.2446 145.68 38.2446 106.214C38.2446 66.7475 90.7959 34.7539 155.621 34.7539C220.446 34.7539 272.998 66.7475 272.998 106.214Z" fill="white"/>
<path d="M97.0303 209.954C40.2034 212.841 18.3753 253.401 14.1747 274.35C34.5057 292.857 66.5305 315.447 104.588 325.924C188.028 348.893 236.846 307.371 242.798 303.822C218.648 273.116 153.857 207.066 97.0303 209.954Z" fill="#E48888" stroke="black" stroke-width="4"/>
</g>
<path d="M151.818 80.7463C133.318 66.5596 115.507 75.7177 108.886 81.6288C108.886 81.6288 111.781 149.97 111.825 194.511C111.871 240.779 108.832 312.709 108.832 312.709L151.818 309.015C159.526 238.837 151.818 80.7463 151.818 80.7463Z" fill="#71D4FF"/>
<path d="M151.83 81.6802C151.83 81.6802 142.205 73.307 130.331 73.307C118.458 73.307 108.832 81.6802 108.832 81.6802C108.832 75.2596 118.458 70.0547 130.331 70.0547C142.205 70.0547 151.83 75.2596 151.83 81.6802Z" fill="black"/>
<path d="M277.083 80.7463C258.583 66.5596 240.772 75.7177 234.151 81.6288C234.151 81.6288 237.047 149.969 237.09 194.51C237.136 240.778 234.097 312.708 234.097 312.708L277.083 309.014C284.791 238.836 277.083 80.7463 277.083 80.7463Z" fill="#71D4FF"/>
<path d="M277.095 81.6802C277.095 81.6802 267.47 73.307 255.596 73.307C243.723 73.307 234.097 81.6802 234.097 81.6802C234.097 75.2596 243.723 70.0547 255.596 70.0547C267.47 70.0547 277.095 75.2596 277.095 81.6802Z" fill="black"/>
<ellipse cx="165.761" cy="309.408" rx="163.061" ry="5.85492" fill="#71D4FF"/>
<defs>
<radialGradient id="paint0_radial" cx="0" cy="0" r="1" gradientUnits="userSpaceOnUse" gradientTransform="translate(165.711 36.0001) rotate(94.2228) scale(252.687 271.6)">
<stop stop-color="#FCFCFC" stop-opacity="0"/>
<stop offset="0.223958" stop-color="white" stop-opacity="0"/>
<stop offset="0.785743" stop-color="#959595" stop-opacity="0"/>
<stop offset="1" stop-opacity="0.21"/>
</radialGradient>
<radialGradient id="paint1_radial" cx="0" cy="0" r="1" gradientUnits="userSpaceOnUse" gradientTransform="translate(172.522 140.142) rotate(122.768) scale(170.912 183.704)">
<stop stop-color="#FCFCFC" stop-opacity="0"/>
<stop offset="0.223958" stop-color="white" stop-opacity="0"/>
<stop offset="0.785743" stop-color="#959595" stop-opacity="0"/>
<stop offset="1" stop-opacity="0.21"/>
</radialGradient>
</defs>
</svg>
