<svg width="330" height="316" viewBox="0 0 330 316" fill="none" xmlns="http://www.w3.org/2000/svg">
<path d="M2.90579 149.58C2.90579 230.596 73.5434 296.515 160.989 296.515C248.434 296.515 319.071 230.596 319.071 149.58C319.071 68.5631 248.434 2.64453 160.989 2.64453C73.5434 2.64453 2.90579 68.5631 2.90579 149.58Z" fill="#FFE352"/>
<path d="M2.90579 149.58C2.90579 230.596 73.5434 296.515 160.989 296.515C248.434 296.515 319.071 230.596 319.071 149.58C319.071 68.5631 248.434 2.64453 160.989 2.64453C73.5434 2.64453 2.90579 68.5631 2.90579 149.58Z" fill="url(#paint0_radial)" fill-opacity="0.2"/>
<path d="M2.90579 149.58C2.90579 230.596 73.5434 296.515 160.989 296.515C248.434 296.515 319.071 230.596 319.071 149.58C319.071 68.5631 248.434 2.64453 160.989 2.64453C73.5434 2.64453 2.90579 68.5631 2.90579 149.58Z" fill="url(#paint1_radial)"/>
<path d="M2.90579 149.58C2.90579 230.596 73.5434 296.515 160.989 296.515C248.434 296.515 319.071 230.596 319.071 149.58C319.071 68.5631 248.434 2.64453 160.989 2.64453C73.5434 2.64453 2.90579 68.5631 2.90579 149.58Z" stroke="black" stroke-width="4"/>
<path d="M268.07 122.765L265.701 123.21L266.07 125.176C265.701 123.21 265.701 123.21 265.7 123.21L265.698 123.211L265.69 123.212L265.656 123.218L265.521 123.244C265.401 123.266 265.222 123.299 264.986 123.342C264.514 123.429 263.815 123.556 262.911 123.719C261.101 124.043 258.468 124.507 255.178 125.064C248.597 126.177 239.388 127.662 228.883 129.147C207.846 132.12 181.703 135.078 161.039 135.078C140.376 135.078 114.233 132.12 93.1962 129.147C82.6906 127.662 73.4822 126.177 66.9009 125.064C63.6105 124.507 60.9775 124.043 59.1681 123.719C58.2635 123.556 57.5648 123.429 57.0929 123.342C56.8569 123.299 56.6777 123.266 56.5577 123.244L56.4225 123.218L56.3889 123.212L56.3807 123.211L56.3787 123.21C56.3784 123.21 56.3783 123.21 56.0093 125.176L56.3783 123.21L54.0093 122.765V125.176C54.0093 163.959 65.8835 199.147 85.1761 224.683C104.47 250.22 131.272 266.195 161.039 266.195C190.807 266.195 217.609 250.22 236.903 224.683C256.195 199.147 268.07 163.959 268.07 125.176V122.765Z" fill="#B94C4C" stroke="black" stroke-width="4"/>
<mask id="mask0" mask-type="alpha" maskUnits="userSpaceOnUse" x="56" y="125" width="211" height="140">
<path d="M88.3672 222.269C70.0355 198.005 58.4956 164.591 58.0238 127.538C58.1675 127.562 58.3173 127.586 58.4733 127.612C60.2827 127.909 62.9128 128.332 66.1998 128.84C72.7731 129.855 81.9759 131.209 92.4963 132.563C113.514 135.268 139.876 137.985 161.039 137.985C182.202 137.985 208.564 135.268 229.582 132.563C240.102 131.209 249.305 129.855 255.878 128.84C259.165 128.332 261.795 127.909 263.605 127.612C263.761 127.586 263.91 127.562 264.054 127.538C263.582 164.591 252.042 198.005 233.711 222.269C214.991 247.047 189.278 262.193 161.039 262.193C132.8 262.193 107.087 247.047 88.3672 222.269Z" fill="#B94C4C" stroke="black" stroke-width="4"/>
</mask>
<g mask="url(#mask0)">
<path d="M273.833 106.858C273.833 146.324 226.037 150.673 161.212 150.673C96.3867 150.673 39.0801 146.324 39.0801 106.858C39.0801 67.3921 91.6314 35.3984 156.457 35.3984C221.282 35.3984 273.833 67.3921 273.833 106.858Z" fill="white"/>
<path d="M97.8657 210.598C41.0388 213.486 19.2108 254.045 15.0101 274.995C35.3412 293.501 67.366 316.092 105.423 326.568C188.863 349.538 237.682 308.016 243.633 304.467C219.484 273.761 154.693 207.711 97.8657 210.598Z" fill="#E48888" stroke="black" stroke-width="4"/>
</g>
<path d="M152.654 78.4327C134.153 68.1703 116.342 74.7951 109.722 79.0711C109.722 79.0711 112.617 128.508 112.661 160.728C112.706 194.198 109.672 246.491 109.672 246.491C119.329 253.849 134.069 260.773 145.541 262.759C157.014 264.744 166.392 264.639 169.538 263.732C169.748 263.216 147.001 262.109 147.197 261.386C154.21 235.482 152.654 78.4327 152.654 78.4327Z" fill="#71D4FF"/>
<path d="M152.666 79.109C152.666 79.109 143.04 73.0519 131.167 73.0519C119.293 73.0519 109.667 79.109 109.667 79.109C109.667 74.4644 119.293 70.6992 131.167 70.6992C143.04 70.6992 152.666 74.4644 152.666 79.109Z" fill="black"/>
<path d="M277.918 81.3908C259.418 67.2041 241.607 76.3622 234.987 82.2733C234.987 82.2733 237.882 150.614 237.926 195.155C237.971 241.423 234.933 313.352 234.933 313.352L277.918 309.659C285.627 239.481 277.918 81.3908 277.918 81.3908Z" fill="#71D4FF"/>
<path d="M277.931 82.3247C277.931 82.3247 268.305 73.9515 256.432 73.9515C244.558 73.9515 234.933 82.3247 234.933 82.3247C234.933 75.9041 244.558 70.6992 256.432 70.6992C268.305 70.6992 277.931 75.9041 277.931 82.3247Z" fill="black"/>
<ellipse cx="166.596" cy="310.052" rx="163.061" ry="5.85492" fill="#71D4FF"/>
<path d="M151.202 263.586C151.202 263.586 154.741 263.999 157.02 264.1C159.31 264.201 162.89 264.1 162.89 264.1V314.28H151.202V263.586Z" fill="#71D4FF"/>
<defs>
<radialGradient id="paint0_radial" cx="0" cy="0" r="1" gradientUnits="userSpaceOnUse" gradientTransform="translate(166.547 36.6446) rotate(94.2228) scale(252.687 271.6)">
<stop stop-color="#FCFCFC" stop-opacity="0"/>
<stop offset="0.223958" stop-color="white" stop-opacity="0"/>
<stop offset="0.785743" stop-color="#959595" stop-opacity="0"/>
<stop offset="1" stop-opacity="0.21"/>
</radialGradient>
<radialGradient id="paint1_radial" cx="0" cy="0" r="1" gradientUnits="userSpaceOnUse" gradientTransform="translate(173.357 140.787) rotate(122.768) scale(170.912 183.704)">
<stop stop-color="#FCFCFC" stop-opacity="0"/>
<stop offset="0.223958" stop-color="white" stop-opacity="0"/>
<stop offset="0.785743" stop-color="#959595" stop-opacity="0"/>
<stop offset="1" stop-opacity="0.21"/>
</radialGradient>
</defs>
</svg>
