<svg width="322" height="299" viewBox="0 0 322 299" fill="none" xmlns="http://www.w3.org/2000/svg">
<path d="M2.99319 149.507C2.99319 230.524 73.6308 296.443 161.076 296.443C248.521 296.443 319.159 230.524 319.159 149.507C319.159 68.4909 248.521 2.57227 161.076 2.57227C73.6308 2.57227 2.99319 68.4909 2.99319 149.507Z" fill="#FFE352"/>
<path d="M2.99319 149.507C2.99319 230.524 73.6308 296.443 161.076 296.443C248.521 296.443 319.159 230.524 319.159 149.507C319.159 68.4909 248.521 2.57227 161.076 2.57227C73.6308 2.57227 2.99319 68.4909 2.99319 149.507Z" fill="url(#paint0_radial)"/>
<path d="M2.99319 149.507C2.99319 230.524 73.6308 296.443 161.076 296.443C248.521 296.443 319.159 230.524 319.159 149.507C319.159 68.4909 248.521 2.57227 161.076 2.57227C73.6308 2.57227 2.99319 68.4909 2.99319 149.507Z" stroke="black" stroke-width="4"/>
<path d="M274.157 125.248L272.206 125.2L272.157 127.2C272.206 125.2 272.206 125.2 272.205 125.2L272.203 125.2L272.194 125.2L272.16 125.199L272.022 125.196L271.483 125.183C271.008 125.172 270.306 125.155 269.398 125.134C267.582 125.091 264.942 125.031 261.643 124.958C255.046 124.812 245.817 124.618 235.287 124.424C214.229 124.037 187.957 123.648 167.127 123.648C146.297 123.648 120.024 124.037 98.9669 124.424C88.4366 124.618 79.2073 124.812 72.6105 124.958C69.3121 125.031 66.6718 125.091 64.8558 125.134C63.9479 125.155 63.246 125.172 62.7711 125.183L62.2314 125.196L62.0941 125.199L62.0595 125.2L62.0507 125.2L62.0485 125.2C62.048 125.2 62.0478 125.2 62.0967 127.2L62.0478 125.2L60.0967 125.248V127.2C60.0967 180.287 108.236 222.946 167.127 222.946C226.018 222.946 274.157 180.287 274.157 127.2V125.248Z" fill="#B94C4C" stroke="black" stroke-width="4"/>
<mask id="mask0" mask-type="alpha" maskUnits="userSpaceOnUse" x="62" y="125" width="211" height="96">
<path d="M269.312 129.118C269.608 129.126 269.883 129.134 270.134 129.141C268.974 178.716 223.514 218.945 167.126 218.945C110.739 218.945 65.2789 178.716 64.1189 129.141C64.3702 129.134 64.6444 129.126 64.9407 129.118C66.7437 129.067 69.3667 128.994 72.6459 128.907C79.2043 128.732 88.3869 128.498 98.8834 128.265C119.88 127.798 146.12 127.332 167.126 127.332C188.133 127.332 214.373 127.798 235.369 128.265C245.866 128.498 255.048 128.732 261.607 128.907C264.886 128.994 267.509 129.067 269.312 129.118Z" fill="#B94C4C" stroke="black" stroke-width="4"/>
</mask>
<g mask="url(#mask0)">
<path d="M279.921 114.848C279.921 141.462 230.923 135.431 166.097 135.431C101.272 135.431 45.1675 141.462 45.1675 114.848C45.1675 88.2347 97.7188 66.6602 162.544 66.6602C227.369 66.6602 279.921 88.2347 279.921 114.848Z" fill="white"/>
<path d="M103.953 184.803C47.1262 186.751 25.2982 214.102 21.0975 228.229C41.4286 240.708 73.4534 255.942 111.511 263.007C194.95 278.496 243.769 250.496 249.721 248.103C225.571 227.396 160.78 182.856 103.953 184.803Z" fill="#E48888" stroke="black" stroke-width="4"/>
</g>
<path d="M158.12 82.4048C158.12 88.8254 148.495 94.0303 136.621 94.0303C124.748 94.0303 115.122 88.8254 115.122 82.4048C115.122 75.9842 124.748 70.7793 136.621 70.7793C148.495 70.7793 158.12 75.9842 158.12 82.4048Z" fill="black"/>
<path d="M159.759 88.5925C159.759 95.8147 149.375 104.193 136.566 104.193C123.756 104.193 113.372 95.8147 113.372 88.5925C113.372 81.3704 123.756 75.5156 136.566 75.5156C149.375 75.5156 159.759 81.3704 159.759 88.5925Z" fill="#FFE352"/>
<path d="M244.915 82.4048C244.915 88.8254 235.29 94.0303 223.416 94.0303C211.542 94.0303 201.917 88.8254 201.917 82.4048C201.917 75.9842 211.542 70.7793 223.416 70.7793C235.29 70.7793 244.915 75.9842 244.915 82.4048Z" fill="black"/>
<path d="M246.554 88.5925C246.554 95.8147 236.17 104.193 223.36 104.193C210.551 104.193 200.167 95.8147 200.167 88.5925C200.167 81.3704 210.551 75.5156 223.36 75.5156C236.17 75.5156 246.554 81.3704 246.554 88.5925Z" fill="#FFE352"/>
<path d="M75.6845 93.6939C69.4389 95.1768 64.6624 101.417 66.4102 105.402C68.1579 109.386 75.4246 112.139 81.9476 107.971C88.4706 103.804 90.4345 97.3766 102.28 89.6667C86.1501 96.7422 81.9301 92.211 75.6845 93.6939Z" fill="#30C1FF"/>
<path d="M75.6845 93.6939C69.4389 95.1768 64.6624 101.417 66.4102 105.402C68.1579 109.386 75.4246 112.139 81.9476 107.971C88.4706 103.804 90.4345 97.3766 102.28 89.6667C86.1501 96.7422 81.9301 92.211 75.6845 93.6939Z" fill="url(#paint1_radial)"/>
<path d="M277.203 96.9825C280.483 99.0265 285.177 98.4267 286.141 95.9911C287.105 93.5556 285.205 89.2805 280.659 88.2549C276.113 87.2292 272.531 89.1117 264.215 87.3097C274.074 91.2135 273.923 94.9384 277.203 96.9825Z" fill="#30C1FF"/>
<path d="M277.203 96.9825C280.483 99.0265 285.177 98.4267 286.141 95.9911C287.105 93.5556 285.205 89.2805 280.659 88.2549C276.113 87.2292 272.531 89.1117 264.215 87.3097C274.074 91.2135 273.923 94.9384 277.203 96.9825Z" fill="url(#paint2_radial)"/>
<defs>
<radialGradient id="paint0_radial" cx="0" cy="0" r="1" gradientUnits="userSpaceOnUse" gradientTransform="translate(166.634 36.5724) rotate(91.1614) scale(274.224 294.749)">
<stop stop-color="#FCFCFC" stop-opacity="0"/>
<stop offset="0.223958" stop-color="white" stop-opacity="0"/>
<stop offset="0.785743" stop-color="#959595" stop-opacity="0"/>
<stop offset="1" stop-opacity="0.21"/>
</radialGradient>
<radialGradient id="paint1_radial" cx="0" cy="0" r="1" gradientUnits="userSpaceOnUse" gradientTransform="translate(79.7644 105.766) rotate(-32.0977) scale(17.4727 8.93862)">
<stop offset="0.139972" stop-color="white" stop-opacity="0.55"/>
<stop offset="1" stop-color="white" stop-opacity="0"/>
</radialGradient>
<radialGradient id="paint2_radial" cx="0" cy="0" r="1" gradientUnits="userSpaceOnUse" gradientTransform="translate(280.64 90.1231) rotate(-166.812) scale(10.5198 5.38171)">
<stop offset="0.139972" stop-color="white" stop-opacity="0.55"/>
<stop offset="1" stop-color="white" stop-opacity="0"/>
</radialGradient>
</defs>
</svg>
