<svg width="321" height="299" viewBox="0 0 321 299" fill="none" xmlns="http://www.w3.org/2000/svg">
<path d="M2.8345 149.63C2.8345 230.647 73.4722 296.566 160.917 296.566C248.362 296.566 319 230.647 319 149.63C319 68.6139 248.362 2.69531 160.917 2.69531C73.4722 2.69531 2.8345 68.6139 2.8345 149.63Z" fill="#FFE352"/>
<path d="M2.8345 149.63C2.8345 230.647 73.4722 296.566 160.917 296.566C248.362 296.566 319 230.647 319 149.63C319 68.6139 248.362 2.69531 160.917 2.69531C73.4722 2.69531 2.8345 68.6139 2.8345 149.63Z" fill="url(#paint0_radial)" fill-opacity="0.2"/>
<path d="M2.8345 149.63C2.8345 230.647 73.4722 296.566 160.917 296.566C248.362 296.566 319 230.647 319 149.63C319 68.6139 248.362 2.69531 160.917 2.69531C73.4722 2.69531 2.8345 68.6139 2.8345 149.63Z" fill="url(#paint1_radial)"/>
<path d="M2.8345 149.63C2.8345 230.647 73.4722 296.566 160.917 296.566C248.362 296.566 319 230.647 319 149.63C319 68.6139 248.362 2.69531 160.917 2.69531C73.4722 2.69531 2.8345 68.6139 2.8345 149.63Z" stroke="black" stroke-width="4"/>
<path d="M143.404 254.825C143.404 254.825 131.028 248.702 122.443 247.861C115.267 247.158 104.051 249.49 104.051 249.49" stroke="black" stroke-width="6" stroke-linecap="round"/>
<path d="M222.707 80.9998C222.707 94.0614 237.684 104.65 250.517 104.65C263.351 104.65 273.754 94.0614 273.754 80.9998C273.754 67.9381 263.351 57.3496 250.517 57.3496C237.684 57.3496 222.707 67.9381 222.707 80.9998Z" fill="white"/>
<mask id="mask0" mask-type="alpha" maskUnits="userSpaceOnUse" x="222" y="56" width="52" height="49">
<path d="M222.706 80.4021C222.706 93.4637 237.683 104.052 250.517 104.052C263.35 104.052 273.754 93.4637 273.754 80.4021C273.754 67.3405 263.35 56.752 250.517 56.752C237.683 56.752 222.706 67.3405 222.706 80.4021Z" fill="black"/>
</mask>
<g mask="url(#mask0)">
<mask id="path-5-inside-1" fill="white">
<ellipse cx="248.335" cy="80.7939" rx="19.0225" ry="19.6025"/>
</mask>
<ellipse cx="248.335" cy="80.7939" rx="19.0225" ry="19.6025" fill="white"/>
<path d="M230.45 80.7939C230.45 72.2891 237.42 63.4887 248.335 63.4887V137.304C280.261 137.304 304.265 110.951 304.265 80.7939H230.45ZM248.335 63.4887C259.25 63.4887 266.22 72.2891 266.22 80.7939H192.405C192.405 110.951 216.409 137.304 248.335 137.304V63.4887ZM266.22 80.7939C266.22 89.2986 259.25 98.0991 248.335 98.0991V24.2837C216.409 24.2837 192.405 50.6369 192.405 80.7939H266.22ZM248.335 98.0991C237.42 98.0991 230.45 89.2986 230.45 80.7939H304.265C304.265 50.6369 280.261 24.2837 248.335 24.2837V98.0991Z" fill="white" mask="url(#path-5-inside-1)"/>
</g>
<circle cx="249.218" cy="81.6496" r="3.81956" fill="black"/>
<path d="M44.1384 73.4108C60.0552 65.3856 80.4444 46.3061 94.7826 49.2006M299.757 67.6236C283.84 59.5983 263.451 40.5189 249.113 43.4134" stroke="black" stroke-width="8"/>
<mask id="mask1" mask-type="alpha" maskUnits="userSpaceOnUse" x="58" y="64" width="55" height="51">
<path d="M58.6648 89.277C58.6648 103.028 70.909 114.175 85.6316 114.175C100.354 114.175 112.289 103.028 112.289 89.277C112.289 75.5262 100.354 64.3789 85.6316 64.3789C70.909 64.3789 58.6648 75.5262 58.6648 89.277Z" fill="white"/>
</mask>
<g mask="url(#mask1)">
<path d="M58.6631 88.8005C58.6631 102.551 70.9072 113.699 85.6299 113.699C100.353 113.699 112.288 102.551 112.288 88.8005C112.288 75.0496 100.353 63.9023 85.6299 63.9023C70.9072 63.9023 58.6631 75.0496 58.6631 88.8005Z" fill="white"/>
<ellipse cx="85.8072" cy="90.6259" rx="19.0225" ry="19.6025" fill="white"/>
<circle cx="85.477" cy="89.2766" r="3.81956" fill="black"/>
</g>
<defs>
<radialGradient id="paint0_radial" cx="0" cy="0" r="1" gradientUnits="userSpaceOnUse" gradientTransform="translate(166.475 36.6954) rotate(94.2228) scale(252.687 271.6)">
<stop stop-color="#FCFCFC" stop-opacity="0"/>
<stop offset="0.223958" stop-color="white" stop-opacity="0"/>
<stop offset="0.785743" stop-color="#959595" stop-opacity="0"/>
<stop offset="1" stop-opacity="0.21"/>
</radialGradient>
<radialGradient id="paint1_radial" cx="0" cy="0" r="1" gradientUnits="userSpaceOnUse" gradientTransform="translate(173.286 140.837) rotate(122.768) scale(170.912 183.704)">
<stop stop-color="#FCFCFC" stop-opacity="0"/>
<stop offset="0.223958" stop-color="white" stop-opacity="0"/>
<stop offset="0.785743" stop-color="#959595" stop-opacity="0"/>
<stop offset="1" stop-opacity="0.21"/>
</radialGradient>
</defs>
</svg>
