<svg width="351" height="299" viewBox="0 0 351 299" fill="none" xmlns="http://www.w3.org/2000/svg">
<g clip-path="url(#clip0)">
<path d="M17.1138 149.507C17.1138 230.524 87.7514 296.443 175.197 296.443C262.642 296.443 333.279 230.524 333.279 149.507C333.279 68.4909 262.642 2.57227 175.197 2.57227C87.7514 2.57227 17.1138 68.4909 17.1138 149.507Z" fill="#FFE352"/>
<path d="M17.1138 149.507C17.1138 230.524 87.7514 296.443 175.197 296.443C262.642 296.443 333.279 230.524 333.279 149.507C333.279 68.4909 262.642 2.57227 175.197 2.57227C87.7514 2.57227 17.1138 68.4909 17.1138 149.507Z" fill="url(#paint0_radial)" fill-opacity="0.2"/>
<path d="M17.1138 149.507C17.1138 230.524 87.7514 296.443 175.197 296.443C262.642 296.443 333.279 230.524 333.279 149.507C333.279 68.4909 262.642 2.57227 175.197 2.57227C87.7514 2.57227 17.1138 68.4909 17.1138 149.507Z" fill="url(#paint1_radial)"/>
<path d="M17.1138 149.507C17.1138 230.524 87.7514 296.443 175.197 296.443C262.642 296.443 333.279 230.524 333.279 149.507C333.279 68.4909 262.642 2.57227 175.197 2.57227C87.7514 2.57227 17.1138 68.4909 17.1138 149.507Z" stroke="black" stroke-width="4"/>
<path d="M282.277 117.735L280.364 117.652L280.277 119.65C280.364 117.652 280.364 117.652 280.363 117.652L280.361 117.652L280.352 117.652L280.318 117.65L280.18 117.644L279.64 117.621C279.165 117.601 278.463 117.571 277.554 117.534C275.738 117.458 273.097 117.351 269.798 117.221C263.2 116.963 253.968 116.618 243.436 116.274C222.376 115.584 196.092 114.895 175.247 114.895C154.402 114.895 128.118 115.584 107.059 116.274C96.5261 116.618 87.2949 116.963 80.6967 117.221C77.3976 117.351 74.7565 117.458 72.94 117.534C72.0317 117.571 71.3296 117.601 70.8543 117.621L70.3143 117.644L70.1768 117.65L70.142 117.652L70.1332 117.652L70.131 117.652C70.1305 117.652 70.1302 117.652 70.217 119.65L70.1302 117.652L68.217 117.735V119.65C68.217 165.953 80.0504 207.966 99.288 238.467C118.509 268.943 145.314 288.174 175.247 288.174C205.18 288.174 231.985 268.943 251.206 238.467C270.444 207.966 282.277 165.953 282.277 119.65V117.735Z" fill="#B94C4C" stroke="black" stroke-width="4"/>
<mask id="mask0" mask-type="alpha" maskUnits="userSpaceOnUse" x="70" y="116" width="211" height="171">
<path d="M277.389 121.504C277.709 121.52 278.003 121.534 278.27 121.548C277.951 166.458 266.338 206.976 247.823 236.332C229.031 266.126 203.32 284.172 175.247 284.172C147.173 284.172 121.463 266.126 102.671 236.332C84.1557 206.976 72.5422 166.458 72.2233 121.548C72.4907 121.534 72.7849 121.52 73.1049 121.504C74.9072 121.413 77.5293 121.283 80.8076 121.128C87.3642 120.817 96.5445 120.403 107.038 119.989C128.032 119.16 154.258 118.332 175.247 118.332C196.236 118.332 222.461 119.16 243.455 119.989C253.949 120.403 263.129 120.817 269.686 121.128C272.964 121.283 275.586 121.413 277.389 121.504Z" fill="#B94C4C" stroke="black" stroke-width="4"/>
</mask>
<g mask="url(#mask0)">
<path d="M67.363 134.817C88.0094 148.645 128.991 143.056 174.218 143.056C225.81 143.056 267.378 150.33 282.198 127.753V114.256H67.363V134.817Z" fill="white"/>
<path d="M217.241 282.994C187.215 250.687 148.048 219.784 112.074 221.973C95.2262 222.999 81.4551 227.99 70.3074 235.16C70.3074 235.16 119.948 289.695 162.566 292.295C183.677 293.583 217.241 282.994 217.241 282.994Z" fill="#E48888" stroke="black" stroke-width="4"/>
</g>
<path d="M19.1565 114.802C8.20313 121.894 5.21057 138.392 12.9142 145.946C20.6179 153.5 38.0837 154.959 46.7625 141.873C55.4413 128.787 52.5999 113.63 68.2096 89.5581C43.3447 114.914 30.1098 107.709 19.1565 114.802Z" fill="#30C1FF"/>
<path d="M19.1565 114.802C8.20313 121.894 5.21057 138.392 12.9142 145.946C20.6179 153.5 38.0837 154.959 46.7625 141.873C55.4413 128.787 52.5999 113.63 68.2096 89.5581C43.3447 114.914 30.1098 107.709 19.1565 114.802Z" fill="url(#paint2_radial)"/>
<path d="M304.958 134.278C313.193 145.001 329.926 147.747 336.611 140.047C343.297 132.348 342.868 115.088 328.916 106.686C314.965 98.2838 300.193 101.28 274.567 86.1743C302.467 110.4 296.723 123.555 304.958 134.278Z" fill="#30C1FF"/>
<path d="M304.958 134.278C313.193 145.001 329.926 147.747 336.611 140.047C343.297 132.348 342.868 115.088 328.916 106.686C314.965 98.2838 300.193 101.28 274.567 86.1743C302.467 110.4 296.723 123.555 304.958 134.278Z" fill="url(#paint3_radial)"/>
<mask id="mask1" mask-type="alpha" maskUnits="userSpaceOnUse" x="56" y="56" width="55" height="51">
<path d="M56.9141 81.527C56.9141 95.2779 69.1582 106.425 83.8809 106.425C98.6035 106.425 110.539 95.2779 110.539 81.527C110.539 67.7762 98.6035 56.6289 83.8809 56.6289C69.1582 56.6289 56.9141 67.7762 56.9141 81.527Z" fill="white"/>
</mask>
<g mask="url(#mask1)">
<path d="M56.9124 81.0505C56.9124 94.8013 69.1565 105.949 83.8792 105.949C98.6018 105.949 110.537 94.8013 110.537 81.0505C110.537 67.2996 98.6018 56.1523 83.8792 56.1523C69.1565 56.1523 56.9124 67.2996 56.9124 81.0505Z" fill="white"/>
<ellipse cx="84.0564" cy="82.8759" rx="19.0225" ry="19.6025" fill="white"/>
</g>
<path d="M236.986 80.8767C236.986 93.9383 251.963 104.527 264.796 104.527C277.63 104.527 288.033 93.9383 288.033 80.8767C288.033 67.8151 277.63 57.2266 264.796 57.2266C251.963 57.2266 236.986 67.8151 236.986 80.8767Z" fill="white"/>
<mask id="mask2" mask-type="alpha" maskUnits="userSpaceOnUse" x="236" y="56" width="53" height="48">
<path d="M236.986 80.2791C236.986 93.3407 251.963 103.929 264.796 103.929C277.63 103.929 288.033 93.3407 288.033 80.2791C288.033 67.2174 277.63 56.6289 264.796 56.6289C251.963 56.6289 236.986 67.2174 236.986 80.2791Z" fill="black"/>
</mask>
<g mask="url(#mask2)">
<mask id="path-13-inside-1" fill="white">
<ellipse cx="262.614" cy="80.6708" rx="19.0225" ry="19.6025"/>
</mask>
<ellipse cx="262.614" cy="80.6708" rx="19.0225" ry="19.6025" fill="white"/>
<path d="M244.729 80.6708C244.729 72.1661 251.7 63.3656 262.614 63.3656V137.181C294.541 137.181 318.544 110.828 318.544 80.6708H244.729ZM262.614 63.3656C273.529 63.3656 280.499 72.1661 280.499 80.6708H206.684C206.684 110.828 230.688 137.181 262.614 137.181V63.3656ZM280.499 80.6708C280.499 89.1755 273.529 97.976 262.614 97.976V24.1607C230.688 24.1607 206.684 50.5138 206.684 80.6708H280.499ZM262.614 97.976C251.7 97.976 244.729 89.1755 244.729 80.6708H318.544C318.544 50.5138 294.541 24.1607 262.614 24.1607V97.976Z" fill="white" mask="url(#path-13-inside-1)"/>
</g>
<circle cx="83.7261" cy="81.5266" r="3.81956" fill="black"/>
<circle cx="263.497" cy="81.5266" r="3.81956" fill="black"/>
<path d="M240.934 91.8888L246.728 89.5788M253.793 90.6405L250.059 88.2509L246.728 89.5788M246.728 89.5788L248.201 84.6412L248.433 81.4609" stroke="#B40000" stroke-opacity="0.64" stroke-width="0.5" stroke-linecap="round"/>
<path d="M281.226 97.901L278.67 94.0868M275.993 88.9288L278.323 91.2124L278.67 94.0868M278.67 94.0868L272.771 92.9971L268.557 94.0868" stroke="#B40000" stroke-opacity="0.64" stroke-width="0.5" stroke-linecap="round"/>
<path d="M108.264 90.8691L102.701 89.7163L100.331 90.6694M100.331 90.6694L96.7444 90.1533L96.5058 87.2938M100.331 90.6694L102.445 95.2111L102.462 99.2664" stroke="#B40000" stroke-opacity="0.64" stroke-width="0.5" stroke-linecap="round"/>
<path d="M271.447 60.975L271.265 61.1466C271.217 61.0961 271.193 61.0281 271.197 60.9588C271.202 60.8895 271.235 60.8252 271.289 60.7813L271.447 60.975ZM274.542 64.253L274.724 64.0813C274.785 64.1461 274.807 64.2385 274.781 64.3239C274.756 64.4093 274.687 64.4748 274.601 64.4959L274.542 64.253ZM268.24 65.7874L267.995 65.7355C268.015 65.6415 268.087 65.5672 268.18 65.5445L268.24 65.7874ZM267.411 70.897C267.382 71.0321 267.249 71.1183 267.114 71.0897C266.979 71.061 266.893 70.9283 266.922 70.7932L267.411 70.897ZM273.512 58.967C273.619 58.8797 273.776 58.8956 273.864 59.0026C273.951 59.1096 273.935 59.2671 273.828 59.3544L273.512 58.967ZM271.629 60.8034L274.724 64.0813L274.36 64.4246L271.265 61.1466L271.629 60.8034ZM274.601 64.4959L268.299 66.0303L268.18 65.5445L274.483 64.0101L274.601 64.4959ZM268.484 65.8393L267.411 70.897L266.922 70.7932L267.995 65.7355L268.484 65.8393ZM271.289 60.7813L273.512 58.967L273.828 59.3544L271.605 61.1687L271.289 60.7813Z" fill="#B40000" fill-opacity="0.64"/>
<path d="M64.1187 97.9878L65.8384 94.49L67.6835 93.9309M67.6835 93.9309L70.1551 93.1819L73.9624 93.9309L75.1654 92.3188M67.6835 93.9309L66.8148 90.1244L68.4425 86.5162" stroke="#B40000" stroke-opacity="0.64" stroke-width="0.5" stroke-linecap="round"/>
<path d="M60.1554 70.3238L63.7778 72.6168L66.2241 72.4719M69.6067 72.2715L66.2241 72.4719M66.2241 72.4719L66.7999 76.0713" stroke="#B40000" stroke-opacity="0.64" stroke-width="0.5" stroke-linecap="round"/>
</g>
<defs>
<radialGradient id="paint0_radial" cx="0" cy="0" r="1" gradientUnits="userSpaceOnUse" gradientTransform="translate(180.755 36.5724) rotate(94.2228) scale(252.687 271.6)">
<stop stop-color="#FCFCFC" stop-opacity="0"/>
<stop offset="0.223958" stop-color="white" stop-opacity="0"/>
<stop offset="0.785743" stop-color="#959595" stop-opacity="0"/>
<stop offset="1" stop-opacity="0.21"/>
</radialGradient>
<radialGradient id="paint1_radial" cx="0" cy="0" r="1" gradientUnits="userSpaceOnUse" gradientTransform="translate(187.565 140.714) rotate(122.768) scale(170.912 183.704)">
<stop stop-color="#FCFCFC" stop-opacity="0"/>
<stop offset="0.223958" stop-color="white" stop-opacity="0"/>
<stop offset="0.785743" stop-color="#959595" stop-opacity="0"/>
<stop offset="1" stop-opacity="0.21"/>
</radialGradient>
<radialGradient id="paint2_radial" cx="0" cy="0" r="1" gradientUnits="userSpaceOnUse" gradientTransform="translate(40.0618 138.446) rotate(-55.8695) scale(35.4228 22.0467)">
<stop offset="0.139972" stop-color="white" stop-opacity="0.55"/>
<stop offset="1" stop-color="white" stop-opacity="0"/>
</radialGradient>
<radialGradient id="paint3_radial" cx="0" cy="0" r="1" gradientUnits="userSpaceOnUse" gradientTransform="translate(326.229 113.344) rotate(-148.414) scale(36.7518 20.8953)">
<stop offset="0.139972" stop-color="white" stop-opacity="0.55"/>
<stop offset="1" stop-color="white" stop-opacity="0"/>
</radialGradient>
<clipPath id="clip0">
<rect width="349.919" height="297.87" fill="white" transform="translate(0.158203 0.572266)"/>
</clipPath>
</defs>
</svg>
