<svg width="321" height="299" viewBox="0 0 321 299" fill="none" xmlns="http://www.w3.org/2000/svg">
<path d="M236.632 276.701C236.549 277.106 236.68 277.453 236.836 277.688C236.982 277.909 237.175 278.075 237.344 278.197C237.684 278.441 238.139 278.653 238.633 278.842C239.64 279.227 241.063 279.608 242.736 279.958C246.096 280.661 250.611 281.269 255.17 281.52C261.291 281.858 265.368 281.723 267.889 281.289C269.133 281.075 270.107 280.771 270.765 280.335C271.103 280.111 271.412 279.816 271.599 279.426C271.796 279.014 271.818 278.578 271.704 278.171C271.5 277.439 270.882 276.87 270.282 276.451C269.639 276.001 268.811 275.584 267.891 275.216C267.34 274.995 266.743 274.788 266.116 274.598C267.575 274.192 268.774 273.752 269.704 273.303C270.582 272.879 271.307 272.404 271.764 271.87C271.998 271.598 272.203 271.262 272.282 270.865C272.365 270.442 272.289 270.022 272.066 269.655C271.668 269 270.892 268.65 270.135 268.442C269.32 268.218 268.263 268.087 266.986 268.052C264.424 267.982 260.823 268.295 256.174 269.155C251.612 269.999 246.931 271.405 243.353 272.754C241.565 273.428 240.032 274.096 238.916 274.683C238.361 274.975 237.882 275.261 237.521 275.531C237.341 275.666 237.165 275.815 237.02 275.977C236.89 276.123 236.701 276.369 236.632 276.701Z" fill="#FFB5F8" stroke="black" stroke-width="2"/>
<path d="M2.40042 149.275C2.40042 230.291 73.0381 296.21 160.483 296.21C247.928 296.21 318.566 230.291 318.566 149.275C318.566 68.2584 247.928 2.33984 160.483 2.33984C73.0381 2.33984 2.40042 68.2584 2.40042 149.275Z" fill="#FFE352"/>
<path d="M2.40042 149.275C2.40042 230.291 73.0381 296.21 160.483 296.21C247.928 296.21 318.566 230.291 318.566 149.275C318.566 68.2584 247.928 2.33984 160.483 2.33984C73.0381 2.33984 2.40042 68.2584 2.40042 149.275Z" fill="url(#paint0_radial)"/>
<path d="M2.40042 149.275C2.40042 230.291 73.0381 296.21 160.483 296.21C247.928 296.21 318.566 230.291 318.566 149.275C318.566 68.2584 247.928 2.33984 160.483 2.33984C73.0381 2.33984 2.40042 68.2584 2.40042 149.275Z" stroke="black" stroke-width="4"/>
<mask id="mask0" mask-type="alpha" maskUnits="userSpaceOnUse" x="113" y="59" width="38" height="35">
<path d="M113.718 76.1727C113.718 85.4941 122.018 93.0505 131.998 93.0505C141.978 93.0505 150.069 85.4941 150.069 76.1727C150.069 66.8514 141.978 59.2949 131.998 59.2949C122.018 59.2949 113.718 66.8514 113.718 76.1727Z" fill="white"/>
</mask>
<g mask="url(#mask0)">
<path d="M113.717 75.8485C113.717 85.1699 122.017 92.7263 131.997 92.7263C141.977 92.7263 150.068 85.1699 150.068 75.8485C150.068 66.5272 141.977 58.9707 131.997 58.9707C122.017 58.9707 113.717 66.5272 113.717 75.8485Z" fill="white"/>
</g>
<path d="M173.995 76.1243C173.995 85.4188 184.645 92.9536 193.771 92.9536C202.896 92.9536 210.294 85.4188 210.294 76.1243C210.294 66.8297 202.896 59.2949 193.771 59.2949C184.645 59.2949 173.995 66.8297 173.995 76.1243Z" fill="white"/>
<mask id="mask1" mask-type="alpha" maskUnits="userSpaceOnUse" x="176" y="67" width="32" height="30">
<path d="M176.635 81.6223C176.635 89.5804 185.736 96.0318 193.534 96.0318C201.332 96.0318 207.654 89.5804 207.654 81.6223C207.654 73.6642 201.332 67.2129 193.534 67.2129C185.736 67.2129 176.635 73.6642 176.635 81.6223Z" fill="white"/>
</mask>
<g mask="url(#mask1)">
</g>
<path d="M105.413 52.3872C108.334 51.34 110.327 49.7028 112.752 47.8579C113.646 47.1782 114.788 45.9707 115.981 45.9707" stroke="black" stroke-width="12" stroke-linecap="round" stroke-linejoin="round"/>
<path d="M207.7 42.5742C212.332 46.1623 216.357 50.2202 220.156 54.6524" stroke="black" stroke-width="12" stroke-linecap="round" stroke-linejoin="round"/>
<path d="M158.596 128.373C159.611 128.398 160.628 128.41 161.535 128.863" stroke="black" stroke-width="4" stroke-linecap="round" stroke-linejoin="round"/>
<path d="M152.436 124.339C155.062 123.826 163.045 121.554 164.682 124.828" stroke="black" stroke-width="4" stroke-linecap="round" stroke-linejoin="round"/>
<path d="M21.0525 260.881C20.7379 260.943 20.4451 261.02 20.1747 261.11C19.413 261.365 18.7526 261.752 18.3181 262.303C17.8576 262.886 17.6932 263.607 17.9 264.334C18.0941 265.016 18.5812 265.592 19.1963 266.053C19.8196 266.519 20.6391 266.917 21.6293 267.23C23.6111 267.857 26.3919 268.179 29.9805 267.941C31.1992 267.86 33.5168 267.907 36.1173 267.96C37.318 267.985 38.5791 268.011 39.8202 268.026C41.7537 268.049 43.6252 268.045 45.0708 267.961C45.7898 267.92 46.4367 267.857 46.9455 267.76C47.198 267.711 47.4505 267.648 47.6736 267.56C47.8631 267.485 48.1913 267.332 48.414 267.012C48.7162 266.579 48.6525 266.113 48.5403 265.82C48.436 265.547 48.2594 265.319 48.1049 265.149C47.7864 264.797 47.3181 264.427 46.7892 264.06C45.7133 263.313 44.1741 262.437 42.4677 261.571C39.0656 259.844 34.8265 258.07 31.9906 257.406C28.6007 256.611 25.9921 256.332 24.1098 256.411C23.1702 256.451 22.3728 256.581 21.7358 256.806C21.1162 257.025 20.5313 257.375 20.1973 257.939C19.8275 258.563 19.8813 259.245 20.1689 259.817C20.3684 260.214 20.6803 260.568 21.0525 260.881Z" fill="#FFB5F8" stroke="black" stroke-width="2"/>
<ellipse cx="192.254" cy="82.1741" rx="5.71977" ry="5.93976" fill="black"/>
<ellipse cx="131.955" cy="81.6258" rx="6.08117" ry="6.26657" transform="rotate(30 131.955 81.6258)" fill="black"/>
<defs>
<radialGradient id="paint0_radial" cx="0" cy="0" r="1" gradientUnits="userSpaceOnUse" gradientTransform="translate(214.806 86.9726) rotate(148.199) scale(252.276 204.779)">
<stop stop-color="#FCFCFC" stop-opacity="0"/>
<stop offset="0.223958" stop-color="white" stop-opacity="0"/>
<stop offset="0.785743" stop-color="#F7F7F7" stop-opacity="0"/>
<stop offset="1" stop-opacity="0.21"/>
</radialGradient>
</defs>
</svg>
