<svg width="344" height="309" viewBox="0 0 344 309" fill="none" xmlns="http://www.w3.org/2000/svg">
<ellipse rx="160.083" ry="148.935" transform="matrix(-1 0 0 1 162.261 157.63)" fill="#FFE352"/>
<ellipse rx="160.083" ry="148.935" transform="matrix(-1 0 0 1 162.261 157.63)" fill="url(#paint0_radial)"/>
<ellipse rx="160.083" ry="148.935" transform="matrix(-1 0 0 1 162.261 157.63)" stroke="black" stroke-width="4"/>
<path d="M113.755 205.57C145.868 176.789 214.51 185.134 214.742 171.857C214.974 158.58 184.456 150.602 150.528 149.113C116.599 147.624 92.1077 153.188 91.8757 166.465C95.9649 179.033 88.7052 198.392 113.755 205.57Z" fill="#B94C4C" stroke="black" stroke-width="3"/>
<path d="M126.764 101.592C126.764 109.508 143.08 115.925 162.698 115.925C182.316 115.925 198.22 109.508 198.22 101.592C198.22 93.6767 182.316 87.2598 162.698 87.2598C143.08 87.2598 126.764 93.6767 126.764 101.592Z" fill="white"/>
<path fill-rule="evenodd" clip-rule="evenodd" d="M180.537 113.989C187.202 112.424 192.489 110.01 195.488 107.113C194.885 101.484 191.625 97.1836 187.695 97.1836C183.336 97.1836 179.802 102.474 179.802 109.001C179.802 110.783 180.065 112.473 180.537 113.989Z" fill="black"/>
<g filter="url(#filter0_d)">
<path d="M157.051 34.1213C157.051 34.1213 145.016 31.2183 121.504 37.8962C97.9915 44.5741 87.232 75.7854 87.232 75.7854" stroke="#353434" stroke-width="10" stroke-linecap="round"/>
</g>
<path d="M215.022 98.2689C215.022 104.349 238.546 109.278 258.703 109.278C278.861 109.278 295.202 104.349 295.202 98.2689C295.202 92.1887 278.861 87.2598 258.703 87.2598C238.546 87.2598 215.022 92.1887 215.022 98.2689Z" fill="white"/>
<g filter="url(#filter1_d)">
<path d="M291.924 49.8703C291.924 49.8703 256.332 39.7684 241.241 49.8703C226.15 59.9722 222.997 66.0771 222.997 66.0771" stroke="#353434" stroke-width="10" stroke-linecap="round"/>
</g>
<path d="M95.5252 187.943L137.874 191.243C121.484 197.733 118.063 201.715 113.674 205.632C107.295 203.102 104.105 201.632 101.795 199.163C99.4851 196.694 96.0236 192.3 95.5252 187.943Z" fill="white"/>
<mask id="mask0" mask-type="alpha" maskUnits="userSpaceOnUse" x="215" y="86" width="81" height="24">
<path d="M215.022 97.9916C215.022 104.072 238.546 109.001 258.703 109.001C278.861 109.001 295.202 104.072 295.202 97.9916C295.202 91.9114 278.861 86.9824 258.703 86.9824C238.546 86.9824 215.022 91.9114 215.022 97.9916Z" fill="white"/>
</mask>
<g mask="url(#mask0)">
<path d="M280.598 102.262C280.598 107.348 281.711 115.579 286.129 115.579C291.537 115.579 293.304 108.802 293.304 103.716C293.304 98.6297 289.184 93.0527 286.129 93.0527C283.074 93.0527 280.598 97.1757 280.598 102.262Z" fill="black"/>
</g>
<defs>
<filter id="filter0_d" x="57.6133" y="1.50195" width="156.059" height="122.695" filterUnits="userSpaceOnUse" color-interpolation-filters="sRGB">
<feFlood flood-opacity="0" result="BackgroundImageFix"/>
<feColorMatrix in="SourceAlpha" type="matrix" values="0 0 0 0 0 0 0 0 0 0 0 0 0 0 0 0 0 0 127 0" result="hardAlpha"/>
<feOffset dx="15" dy="12"/>
<feGaussianBlur stdDeviation="15"/>
<feColorMatrix type="matrix" values="0 0 0 0 0 0 0 0 0 0 0 0 0 0 0 0 0 0 0.2 0"/>
<feBlend mode="normal" in2="BackgroundImageFix" result="effect1_dropShadow"/>
<feBlend mode="normal" in="SourceGraphic" in2="effect1_dropShadow" result="shape"/>
</filter>
<filter id="filter1_d" x="199.703" y="0.291016" width="144.226" height="137.667" filterUnits="userSpaceOnUse" color-interpolation-filters="sRGB">
<feFlood flood-opacity="0" result="BackgroundImageFix"/>
<feColorMatrix in="SourceAlpha" type="matrix" values="0 0 0 0 0 0 0 0 0 0 0 0 0 0 0 0 0 0 127 0" result="hardAlpha"/>
<feOffset dx="15" dy="12"/>
<feGaussianBlur stdDeviation="15"/>
<feColorMatrix type="matrix" values="0 0 0 0 0 0 0 0 0 0 0 0 0 0 0 0 0 0 0.2 0"/>
<feBlend mode="normal" in2="BackgroundImageFix" result="effect1_dropShadow"/>
<feBlend mode="normal" in="SourceGraphic" in2="effect1_dropShadow" result="shape"/>
</filter>
<radialGradient id="paint0_radial" cx="0" cy="0" r="1" gradientUnits="userSpaceOnUse" gradientTransform="translate(105.76 86.6328) rotate(31.8008) scale(252.276 204.779)">
<stop stop-color="#FCFCFC" stop-opacity="0"/>
<stop offset="0.223958" stop-color="white" stop-opacity="0"/>
<stop offset="0.785743" stop-color="#F7F7F7" stop-opacity="0"/>
<stop offset="1" stop-opacity="0.21"/>
</radialGradient>
</defs>
</svg>
