<svg width="321" height="311" viewBox="0 0 321 311" fill="none" xmlns="http://www.w3.org/2000/svg">
<path d="M2.53519 161.63C2.53519 242.647 73.1728 308.566 160.618 308.566C248.063 308.566 318.701 242.647 318.701 161.63C318.701 80.6139 248.063 14.6953 160.618 14.6953C73.1728 14.6953 2.53519 80.6139 2.53519 161.63Z" fill="#FFE352"/>
<path d="M2.53519 161.63C2.53519 242.647 73.1728 308.566 160.618 308.566C248.063 308.566 318.701 242.647 318.701 161.63C318.701 80.6139 248.063 14.6953 160.618 14.6953C73.1728 14.6953 2.53519 80.6139 2.53519 161.63Z" fill="url(#paint0_radial)"/>
<path d="M2.53519 161.63C2.53519 242.647 73.1728 308.566 160.618 308.566C248.063 308.566 318.701 242.647 318.701 161.63C318.701 80.6139 248.063 14.6953 160.618 14.6953C73.1728 14.6953 2.53519 80.6139 2.53519 161.63Z" stroke="black" stroke-width="4"/>
<mask id="mask0" mask-type="alpha" maskUnits="userSpaceOnUse" x="83" y="67" width="84" height="15">
<path d="M83.6946 74.1964C83.6946 78.1525 102.613 81.3595 125.362 81.3595C148.11 81.3595 166.552 78.1525 166.552 74.1964C166.552 70.2403 148.11 67.0332 125.362 67.0332C102.613 67.0332 83.6946 70.2403 83.6946 74.1964Z" fill="white"/>
</mask>
<g mask="url(#mask0)">
<path d="M83.6912 74.0597C83.6912 78.0158 102.61 81.2228 125.359 81.2228C148.107 81.2228 166.548 78.0158 166.548 74.0597C166.548 70.1035 148.107 66.8965 125.359 66.8965C102.61 66.8965 83.6912 70.1035 83.6912 74.0597Z" fill="white"/>
<path d="M153.869 72.8188C153.869 76.0142 154.982 81.1855 159.4 81.1855C164.808 81.1855 166.575 76.9277 166.575 73.7324C166.575 70.537 162.455 67.0332 159.4 67.0332C156.345 67.0332 153.869 69.6235 153.869 72.8188Z" fill="black"/>
</g>
<path d="M189.263 74.6178C189.263 78.4378 212.787 81.5345 232.944 81.5345C253.102 81.5345 269.442 78.4378 269.442 74.6178C269.442 70.7979 253.102 67.7012 232.944 67.7012C212.787 67.7012 189.263 70.7979 189.263 74.6178Z" fill="white"/>
<mask id="mask1" mask-type="alpha" maskUnits="userSpaceOnUse" x="189" y="67" width="81" height="15">
<path d="M189.262 74.444C189.262 78.264 212.786 81.3607 232.944 81.3607C253.101 81.3607 269.442 78.264 269.442 74.444C269.442 70.624 253.101 67.5273 232.944 67.5273C212.786 67.5273 189.262 70.624 189.262 74.444Z" fill="white"/>
</mask>
<g mask="url(#mask1)">
<path d="M256.605 73.479C256.605 76.6743 257.718 81.8457 262.136 81.8457C267.544 81.8457 269.312 77.5878 269.312 74.3925C269.312 71.1972 265.191 67.6934 262.136 67.6934C259.082 67.6934 256.605 70.2837 256.605 73.479Z" fill="black"/>
</g>
<g filter="url(#filter0_d)">
<path d="M67.6323 56.6929C98.9693 55.8735 130.037 43.2734 161.349 43.2734" stroke="#353434" stroke-width="11" stroke-linecap="round" stroke-linejoin="round"/>
</g>
<g filter="url(#filter1_d)">
<path d="M198.747 23.6953C215.209 23.6953 230.856 24.5316 247.103 30.2828C251.029 31.6722 256.024 35.7948 259.905 35.7948" stroke="#353434" stroke-width="11" stroke-linecap="round" stroke-linejoin="round"/>
</g>
<path d="M197.207 105.773C197.207 108.229 200.909 106.773 173.909 106.773C163.048 106.773 158.683 114.456 157.876 106.773C157.069 99.0896 166.681 103.483 177.542 103.483C199.909 103.483 197.207 103.317 197.207 105.773Z" fill="#353434"/>
<defs>
<filter id="filter0_d" x="47.1323" y="19.7734" width="164.716" height="84.4195" filterUnits="userSpaceOnUse" color-interpolation-filters="sRGB">
<feFlood flood-opacity="0" result="BackgroundImageFix"/>
<feColorMatrix in="SourceAlpha" type="matrix" values="0 0 0 0 0 0 0 0 0 0 0 0 0 0 0 0 0 0 127 0" result="hardAlpha"/>
<feOffset dx="15" dy="12"/>
<feGaussianBlur stdDeviation="15"/>
<feColorMatrix type="matrix" values="0 0 0 0 0 0 0 0 0 0 0 0 0 0 0 0 0 0 0.2 0"/>
<feBlend mode="normal" in2="BackgroundImageFix" result="effect1_dropShadow"/>
<feBlend mode="normal" in="SourceGraphic" in2="effect1_dropShadow" result="shape"/>
</filter>
<filter id="filter1_d" x="178.247" y="0.195312" width="132.158" height="83.0995" filterUnits="userSpaceOnUse" color-interpolation-filters="sRGB">
<feFlood flood-opacity="0" result="BackgroundImageFix"/>
<feColorMatrix in="SourceAlpha" type="matrix" values="0 0 0 0 0 0 0 0 0 0 0 0 0 0 0 0 0 0 127 0" result="hardAlpha"/>
<feOffset dx="15" dy="12"/>
<feGaussianBlur stdDeviation="15"/>
<feColorMatrix type="matrix" values="0 0 0 0 0 0 0 0 0 0 0 0 0 0 0 0 0 0 0.2 0"/>
<feBlend mode="normal" in2="BackgroundImageFix" result="effect1_dropShadow"/>
<feBlend mode="normal" in="SourceGraphic" in2="effect1_dropShadow" result="shape"/>
</filter>
<radialGradient id="paint0_radial" cx="0" cy="0" r="1" gradientUnits="userSpaceOnUse" gradientTransform="translate(214.94 99.3281) rotate(148.199) scale(252.276 204.779)">
<stop stop-color="#FCFCFC" stop-opacity="0"/>
<stop offset="0.223958" stop-color="white" stop-opacity="0"/>
<stop offset="0.785743" stop-color="#F7F7F7" stop-opacity="0"/>
<stop offset="1" stop-opacity="0.21"/>
</radialGradient>
</defs>
</svg>
